<svg width="226" height="52" viewBox="0 0 226 52" fill="none" xmlns="http://www.w3.org/2000/svg">
<path d="M16.416 30.816H11.808V49.896H0V0H16.344C23.16 0 28.272 1.248 31.68 3.744C35.136 6.24 36.864 10.056 36.864 15.192C36.864 18.408 36.096 21.096 34.56 23.256C33.024 25.368 30.6 27.168 27.288 28.656L39.96 49.896H26.64L16.416 30.816ZM11.808 22.68H16.776C19.416 22.68 21.384 22.08 22.68 20.88C24.024 19.68 24.696 17.784 24.696 15.192C24.696 12.792 23.976 11.04 22.536 9.936C21.144 8.832 18.984 8.28 16.056 8.28H11.808V22.68Z" fill="black"/>
<path d="M76.5028 30.024C76.5028 31.608 76.4308 32.976 76.2868 34.128H52.5988C52.9828 37.344 53.8948 39.6 55.3348 40.896C56.7748 42.192 58.7668 42.84 61.3108 42.84C62.8468 42.84 64.3348 42.576 65.7748 42.048C67.2148 41.472 68.7748 40.608 70.4548 39.456L75.1348 45.792C70.6708 49.344 65.7028 51.12 60.2308 51.12C54.0388 51.12 49.2868 49.296 45.9748 45.648C42.6628 42 41.0068 37.104 41.0068 30.96C41.0068 27.072 41.7028 23.592 43.0948 20.52C44.4868 17.4 46.5268 14.952 49.2148 13.176C51.9028 11.352 55.1188 10.44 58.8628 10.44C64.3828 10.44 68.7028 12.168 71.8228 15.624C74.9428 19.08 76.5028 23.88 76.5028 30.024ZM65.3428 26.784C65.2468 20.928 63.1828 18 59.1508 18C57.1828 18 55.6468 18.72 54.5428 20.16C53.4868 21.6 52.8388 23.976 52.5988 27.288H65.3428V26.784Z" fill="black"/>
<path d="M105.285 10.44C108.597 10.44 111.189 11.448 113.061 13.464C114.933 15.48 115.869 18.312 115.869 21.96V49.896H104.493V23.904C104.493 21.984 104.181 20.664 103.557 19.944C102.981 19.176 102.093 18.792 100.893 18.792C98.5894 18.792 96.3814 20.448 94.2694 23.76V49.896H82.8934V11.664H92.8294L93.6214 16.2C95.2534 14.28 97.0054 12.84 98.8774 11.88C100.797 10.92 102.933 10.44 105.285 10.44Z" fill="black"/>
<path d="M154.832 38.808C154.832 40.248 155.024 41.304 155.408 41.976C155.84 42.648 156.512 43.152 157.424 43.488L155.048 50.904C152.696 50.712 150.776 50.208 149.288 49.392C147.8 48.528 146.648 47.184 145.832 45.36C143.336 49.2 139.496 51.12 134.312 51.12C130.52 51.12 127.496 50.016 125.24 47.808C122.984 45.6 121.856 42.72 121.856 39.168C121.856 34.992 123.392 31.8 126.464 29.592C129.536 27.384 133.976 26.28 139.784 26.28H143.672V24.624C143.672 22.368 143.192 20.832 142.232 20.016C141.272 19.152 139.592 18.72 137.192 18.72C135.944 18.72 134.432 18.912 132.656 19.296C130.88 19.632 129.056 20.112 127.184 20.736L124.592 13.248C126.992 12.336 129.44 11.64 131.936 11.16C134.48 10.68 136.832 10.44 138.992 10.44C144.464 10.44 148.472 11.568 151.016 13.824C153.56 16.08 154.832 19.464 154.832 23.976V38.808ZM137.624 42.984C140.216 42.984 142.232 41.76 143.672 39.312V32.544H140.864C138.272 32.544 136.328 33 135.032 33.912C133.784 34.824 133.16 36.24 133.16 38.16C133.16 39.696 133.544 40.896 134.312 41.76C135.128 42.576 136.232 42.984 137.624 42.984Z" fill="black"/>
<path d="M187.869 48.096C186.477 49.056 184.845 49.8 182.973 50.328C181.149 50.856 179.325 51.12 177.501 51.12C169.149 51.072 164.973 46.464 164.973 37.296V19.584H159.573V11.664H164.973V3.384L176.349 2.088V11.664H185.133L183.909 19.584H176.349V37.152C176.349 38.928 176.637 40.2 177.213 40.968C177.789 41.736 178.701 42.12 179.949 42.12C181.245 42.12 182.613 41.712 184.053 40.896L187.869 48.096Z" fill="black"/>
<path d="M206.961 10.44C212.817 10.44 217.401 12.24 220.713 15.84C224.025 19.392 225.681 24.384 225.681 30.816C225.681 34.896 224.913 38.472 223.377 41.544C221.889 44.568 219.729 46.92 216.897 48.6C214.113 50.28 210.801 51.12 206.961 51.12C201.153 51.12 196.569 49.344 193.209 45.792C189.897 42.192 188.241 37.176 188.241 30.744C188.241 26.664 188.985 23.112 190.473 20.088C192.009 17.016 194.169 14.64 196.953 12.96C199.785 11.28 203.121 10.44 206.961 10.44ZM206.961 18.792C204.657 18.792 202.929 19.776 201.777 21.744C200.625 23.664 200.049 26.664 200.049 30.744C200.049 34.92 200.601 37.968 201.705 39.888C202.857 41.808 204.609 42.768 206.961 42.768C209.265 42.768 210.993 41.808 212.145 39.888C213.297 37.92 213.873 34.896 213.873 30.816C213.873 26.64 213.297 23.592 212.145 21.672C211.041 19.752 209.313 18.792 206.961 18.792Z" fill="black"/>
</svg>
